PathFileType	4	(X/Y/Z)	Run_400 02
DataRate	CameraRate	NumFrames	NumMarkers	Units	OrigDataRate	OrigDataStartFrame	OrigNumFrames
100	100	5	45	mm	100	123	137
Frame#	Time	LASI			RASI			LPSI			RPSI			RTH1			RTH2			RTH3			LTH1			LTH2			LTH3			RTB1			RTB2			RTB3			RLMAL			RMMAL			LTB1			LTB2			LTB3			RCAL			RTOE			RMT5			LCAL			LTOE			LMT5			LACR			RACR			CLAV			C7			LPSH			RUA1			RUA2			RUA3			RLEL			RMEL			LUA1			LUA2			LUA3			LLEL			LMEL			RFAsuperior			RFAradius			RFAulna			LFAsuperior			LFAradius			LFAulna			
		X1	Y1	Z1	X2	Y2	Z2	X3	Y3	Z3	X4	Y4	Z4	X5	Y5	Z5	X6	Y6	Z6	X7	Y7	Z7	X8	Y8	Z8	X9	Y9	Z9	X10	Y10	Z10	X11	Y11	Z11	X12	Y12	Z12	X13	Y13	Z13	X14	Y14	Z14	X15	Y15	Z15	X16	Y16	Z16	X17	Y17	Z17	X18	Y18	Z18	X19	Y19	Z19	X20	Y20	Z20	X21	Y21	Z21	X22	Y22	Z22	X23	Y23	Z23	X24	Y24	Z24	X25	Y25	Z25	X26	Y26	Z26	X27	Y27	Z27	X28	Y28	Z28	X29	Y29	Z29	X30	Y30	Z30	X31	Y31	Z31	X32	Y32	Z32	X33	Y33	Z33	X34	Y34	Z34	X35	Y35	Z35	X36	Y36	Z36	X37	Y37	Z37	X38	Y38	Z38	X39	Y39	Z39	X40	Y40	Z40	X41	Y41	Z41	X42	Y42	Z42	X43	Y43	Z43	X44	Y44	Z44	X45	Y45	Z45	

123	1.33	953.186509	1075.487261	-438.08214	945.733803	1091.572283	-208.372257	793.457237	1133.473447	-377.90697	789.166297	1131.534506	-288.857892	934.493259	847.648072	-166.859062	1039.987264	829.817843	-171.752623	1026.539154	710.064289	-190.092143	776.8723189999999	889.733132	-488.02147	796.653315	760.454251	-467.677168	702.587265	694.3931250000001	-458.237706	1133.848298	491.216785	-231.058307	1088.951632	433.812566	-193.267568	1108.424868	309.44317	-242.716537	1065.119915	192.776595	-233.922971	1092.293202	220.178068	-309.749613	593.652359	478.81368	-417.842661	459.438785	472.923234	-428.839271	439.750645	362.030408	-388.530132	1010.345842	176.928268	-303.765795	1229.369437	141.350548	-266.840039	1155.070292	114.604774	-204.701088	281.749427	359.00963	-330.5845	352.392534	144.903799	-333.20933	295.196803	180.241524	-393.670033	931.218825	1594.081658	-481.341954	869.585911	1570.889446	-174.168481	970.888383	1515.827331	-288.753153	868.107861	1604.861209	-332.832127	856.792943	1549.570562	-511.333691	753.914004	1472.477209	-111.323939	677.7048590000001	1454.768378	-167.131155	636.959705	1416.469019	-124.026278	604.862364	1354.877197	-93.67395500000001	607.2594779999999	1340.857595	-184.8777	884.089532	1460.075648	-566.2893340000001	827.521317	1376.901524	-563.488509	865.825319	1332.623168	-610.339873	886.526824	1253.946055	-623.4798970000001	826.332267	1242.929512	-550.225413	635.133418	1280.633833	-94.05848400000001	825.717255	1223.86641	-109.385104	793.155604	1167.637222	-91.167091	944.916851	1246.508821	-544.806994	1015.841695	1376.142603	-451.252776	1050.027257	1317.327403	-440.144848	
124	1.34	954.791892	1077.686336	-438.415248	946.63134	1092.035815	-208.931633	794.496951	1133.548329	-379.182111	789.5218149999999	1131.333109	-289.734402	932.239319	845.871048	-165.859753	1036.025786	821.7030099999999	-171.916422	1016.78099	702.442996	-189.073805	783.201991	888.019368	-488.746448	802.889357	759.798422	-466.008207	709.188449	693.086369	-457.946899	1132.90673	484.361024	-232.242351	1092.438055	423.490561	-194.85687	1123.760388	301.488905	-244.763919	1090.591428	181.401514	-236.389322	1115.223145	211.789261	-312.212896	593.0174500000001	482.381438	-417.189891	458.35095	486.677799	-428.213875	430.465152	377.807958	-388.325533	1036.691047	162.955134	-305.519801	1258.243051	143.124696	-272.787538	1187.039792	108.642965	-209.852197	269.95243	385.037089	-331.866495	330.929083	168.621592	-331.577984	276.734604	205.306063	-393.545623	932.422848	1595.772881	-479.356741	870.921325	1571.158655	-172.236968	971.653174	1516.58764	-287.17798	869.3134700000001	1606.192806	-330.493795	857.922182	1551.7147	-509.598562	754.466562	1471.954277	-111.210736	679.031772	1454.783766	-168.718118	637.637461	1415.828961	-127.116656	605.094003	1354.033484	-97.531381	609.526492	1339.87466	-188.26432	884.50865	1462.573967	-564.668277	827.616399	1379.523092	-562.406907	865.788153	1335.601605	-609.887126	886.244585	1256.729649	-623.536338	825.264234	1245.707183	-550.304347	635.853425	1279.962553	-97.141902	827.460511	1224.877971	-108.371805	794.88162	1168.236508	-91.21153700000001	944.355653	1248.132582	-544.69857	1016.267079	1376.29234	-449.601274	1049.544524	1316.709495	-438.565535	
125	1.35	956.1747800000001	1078.985756	-438.609544	947.244685	1092.138077	-209.003591	794.423671	1132.391312	-379.828101	789.086592	1129.665934	-290.179898	930.071822	843.522069	-163.459478	1031.439459	812.967088	-172.649588	1007.295013	694.861805	-188.576065	789.009449	885.658934	-488.860533	808.92076	758.195123	-465.332829	716.290289	690.342069	-457.347675	1130.241159	477.651113	-234.040073	1094.044933	414.254306	-196.902034	1134.835712	295.108587	-247.657775	1110.014195	173.028194	-239.552055	1132.580229	205.764388	-315.780523	594.62226	484.654093	-416.689286	460.411263	499.867806	-427.204481	424.118878	393.560177	-388.844626	1057.265584	152.152794	-308.643738	1279.726573	145.635216	-278.120642	1211.203825	105.732268	-214.543854	262.85092	411.398072	-332.821074	312.593549	192.12051	-332.685599	260.470938	231.691773	-394.730341	933.968675	1596.446964	-477.316178	872.749673	1570.409323	-170.39464	972.471088	1515.990286	-285.894764	870.464664	1606.373386	-328.319214	859.20517	1553.215344	-507.897085	755.81768	1470.152545	-110.748312	680.998379	1453.479695	-169.365014	639.362602	1413.559238	-129.153889	606.673497	1351.433502	-100.302385	612.910403	1337.277648	-189.91105	884.9411270000001	1464.447295	-563.274502	827.362199	1381.776563	-561.503095	865.205693	1338.054021	-609.674557	885.037592	1258.996266	-624.049634	823.666278	1247.946479	-550.894902	637.8022560000001	1277.435465	-99.32652899999999	830.264378	1223.962112	-106.726844	797.668164	1166.81038	-90.98304	943.146245	1248.227058	-545.350682	1017.442636	1373.700343	-448.193051	1049.471332	1313.142217	-437.840691	
126	1.36	957.251168	1079.060003	-438.865816	947.779363	1091.956793	-208.744844	793.826429	1130.070882	-380.145247	788.63357	1126.745614	-290.663035	927.370602	840.010071	-160.678201	1026.182865	803.9467519999999	-173.49685	998.926618	687.623298	-188.790455	793.61234	882.647308	-488.442443	814.816101	755.47185	-465.633731	723.789247	686.024187	-456.469325	1126.172325	471.436643	-236.062732	1093.715618	406.193964	-199.179413	1141.108894	289.874012	-251.077714	1122.321503	166.817378	-243.520924	1143.75492	201.3788	-320.02387	598.498155	485.528592	-416.546955	465.651402	512.068019	-425.927297	421.085097	408.789385	-389.941131	1070.989387	144.080846	-313.503292	1293.320434	147.42337	-282.389048	1226.437361	104.172489	-219.044952	260.896307	437.436233	-333.154862	297.250158	215.405049	-336.334142	247.082876	259.132489	-397.352031	935.7390360000001	1596.017286	-475.1908	874.8732649999999	1568.53786	-168.664951	973.252766	1514.074803	-284.878186	871.466849	1605.383915	-326.284643	860.551957	1553.935689	-506.161629	757.807554	1467.010739	-109.905552	683.356405	1450.666835	-169.003376	641.9547250000001	1409.543869	-129.939341	609.459264	1346.977067	-101.747099	617.16372	1333.319051	-190.799382	885.378709	1465.586596	-562.169723	826.770168	1383.597969	-560.930084	864.11346	1339.916367	-609.789635	882.892407	1260.68982	-624.9872779999999	821.705765	1249.527505	-552.131241	640.924272	1273.025856	-100.446553	834.105197	1221.132239	-104.661078	801.6176819999999	1163.472159	-90.482617	941.18099	1246.816195	-546.765644	1019.003144	1368.48702	-447.091618	1049.564323	1306.919521	-438.231524	
127	1.37	957.993571	1077.657919	-439.396074	948.4629200000001	1091.36013	-208.655872	793.424714	1126.598973	-380.463139	788.72369	1123.070376	-291.404047	924.117132	835.520814	-158.187134	1020.977232	795.152629	-174.0201	992.198487	680.773601	-189.187767	796.914393	878.445827	-487.5675	820.792527	751.3671869999999	-466.584078	731.81755	680.031041	-455.512347	1120.99868	465.621119	-237.933274	1091.03939	399.007364	-201.561962	1142.478297	284.949367	-254.639905	1127.21708	161.372952	-248.336374	1148.623038	197.335849	-324.264955	604.666692	484.980096	-416.829745	474.031543	522.659675	-424.799375	421.681947	422.845285	-391.177935	1077.439737	138.009142	-319.749595	1299.22366	146.88097	-285.636859	1232.783085	101.40001	-223.808198	263.90994	462.343292	-332.835111	285.270478	238.522143	-341.4889	238.007149	287.026115	-401.219814	937.535437	1594.326347	-473.068105	877.09975	1565.441001	-167.04517	973.95829	1510.941635	-284.10278	872.336414	1603.2526	-324.354948	861.845369	1553.585713	-504.390801	760.314349	1462.422653	-108.630085	685.88226	1446.148472	-167.633023	645.252801	1403.633792	-129.384538	613.281387	1340.544415	-101.813952	622.011924	1327.971755	-191.84109	885.640583	1465.865982	-561.3281040000001	825.768507	1384.823014	-560.703771	862.46216	1341.092529	-610.225028	879.814332	1261.702309	-626.31192	819.143652	1250.35947	-553.863286	645.149319	1266.710215	-100.406237	838.985646	1216.493235	-102.393237	806.777744	1158.373992	-89.738978	938.357893	1243.935832	-548.980174	1020.505632	1360.789511	-446.448169	1049.355331	1298.184238	-439.706174	
